<svg width="36" height="36" viewBox="0 0 36 36" fill="none" xmlns="http://www.w3.org/2000/svg">
<path d="M23.3023 1.40949C23.9554 0.97412 24.2819 0.756434 24.6377 0.791662C24.9935 0.826891 25.271 1.10439 25.826 1.65938L34.3405 10.174C34.8955 10.7289 35.173 11.0064 35.2083 11.3622C35.2435 11.718 35.0258 12.0445 34.5904 12.6976L28.589 21.6997C27.7139 23.0123 27.2764 23.6686 26.9765 24.3927C26.6766 25.1167 26.5219 25.8902 26.2125 27.4371L25.2635 32.1819C24.994 33.5295 24.8593 34.2033 24.359 34.4054C23.8588 34.6075 23.2939 34.2163 22.164 33.4341L21.0475 32.6612C15.8296 29.0487 13.2206 27.2425 10.989 25.0109C8.7574 22.7793 6.95119 20.1704 3.33876 14.9524L2.56584 13.836C1.78359 12.706 1.39247 12.1411 1.59454 11.6409C1.79661 11.1407 2.47041 11.0059 3.818 10.7364L8.56285 9.78741C10.1098 9.47803 10.8832 9.32334 11.6073 9.02343C12.3313 8.72352 12.9876 8.28599 14.3002 7.41093L23.3023 1.40949Z" fill="#7E869E" fill-opacity="0.25" stroke="#222222" stroke-width="1.4"/>
</svg>
