<svg width="48" height="48" viewBox="0 0 48 48" fill="none" xmlns="http://www.w3.org/2000/svg">
<path fill-rule="evenodd" clip-rule="evenodd" d="M34.621 5.8681L16.9314 3.08832C13.7108 2.58223 12.1005 2.32918 11.0503 3.2273C10 4.12542 10 5.75548 10 9.01558V22.9999H23.9194L17.2191 14.6246L18.7809 13.3752L26.7809 23.3752L27.2806 23.9999L26.7809 24.6246L18.7809 34.6246L17.2191 33.3752L23.9194 24.9999H10V38.9826C10 42.2427 10 43.8728 11.0503 44.7709C12.1005 45.669 13.7108 45.416 16.9314 44.9099H16.9314L34.621 42.1301C36.2337 41.8767 37.0401 41.7499 37.52 41.1887C38 40.6274 38 39.8111 38 38.1786V9.81962C38 8.18709 38 7.37083 37.52 6.80954C37.0401 6.24825 36.2337 6.12153 34.621 5.8681Z" fill="#222222"/>
</svg>
