<svg width="17" height="13" viewBox="0 0 17 13" fill="none" xmlns="http://www.w3.org/2000/svg">
<path d="M15.0994 3.2695L15.1798 3.76298L16.1017 3.61267L15.4654 2.92887L15.0994 3.2695ZM1.1072 10.6603L0.615904 10.5674H0.615904L1.1072 10.6603ZM6.058 11.75V12.25H6.43185L6.53759 11.8914L6.058 11.75ZM9.77089 1.41669C11.9364 1.41669 13.5357 2.32308 14.7334 3.61012L15.4654 2.92887C14.1101 1.47251 12.2573 0.416687 9.77089 0.416687V1.41669ZM1.59849 10.7532C1.85383 9.40306 2.45235 7.03936 3.72728 5.0254C4.99436 3.02384 6.89213 1.41669 9.77089 1.41669V0.416687C6.43866 0.416687 4.26444 2.30729 2.88235 4.49052C1.50811 6.66135 0.880282 9.16948 0.615904 10.5674L1.59849 10.7532ZM2.04466 11.25C1.73917 11.25 1.55147 11.0019 1.59849 10.7532L0.615904 10.5674C0.442766 11.4829 1.16539 12.25 2.04466 12.25V11.25ZM6.058 11.25H2.04466V12.25H6.058V11.25ZM6.53759 11.8914C7.49752 8.63603 9.76397 4.64602 15.1798 3.76298L15.0189 2.77601C9.06097 3.74743 6.59093 8.1749 5.57842 11.6086L6.53759 11.8914Z" fill="#222222"/>
</svg>
