<svg width="15" height="12" viewBox="0 0 15 12" fill="none" xmlns="http://www.w3.org/2000/svg">
<path d="M13.8309 9.9128L14.3221 9.81938L13.8309 9.9128ZM1.17407 3.17182L0.804828 2.83469L0.184399 3.51421L1.09211 3.66506L1.17407 3.17182ZM9.3625 11L8.8822 11.139L8.98665 11.5H9.3625V11ZM5.99989 1.5C8.55433 1.5 10.251 2.93685 11.3949 4.75158C12.5462 6.57801 13.0979 8.73455 13.3397 10.0062L14.3221 9.81938C14.0713 8.50053 13.4904 6.20067 12.2408 4.21833C10.9839 2.22429 9.01133 0.5 5.99989 0.5V1.5ZM1.54332 3.50895C2.62172 2.32783 4.05728 1.5 5.99989 1.5V0.5C3.72937 0.5 2.03857 1.48344 0.804828 2.83469L1.54332 3.50895ZM1.09211 3.66506C5.96782 4.47531 8.01355 8.13647 8.8822 11.139L9.8428 10.861C8.92509 7.68896 6.68116 3.58014 1.25604 2.67859L1.09211 3.66506ZM12.8948 10.5H9.3625V11.5H12.8948V10.5ZM13.3397 10.0062C13.3866 10.2526 13.2007 10.5 12.8948 10.5V11.5C13.7722 11.5 14.4963 10.7354 14.3221 9.81938L13.3397 10.0062Z" fill="#222222"/>
</svg>
