<svg width="34" height="28" viewBox="0 0 34 28" fill="none" xmlns="http://www.w3.org/2000/svg">
<path d="M33.25 22.3052V1.64474C33.25 1.31022 32.898 1.09265 32.5988 1.24225L24.7399 5.17168C24.6392 5.22203 24.5233 5.2328 24.415 5.20187L9.58497 0.964714C9.47672 0.933784 9.3608 0.944557 9.2601 0.994908L0.998754 5.12558C0.846301 5.20181 0.75 5.35763 0.75 5.52807V26.1885C0.75 26.523 1.10204 26.7406 1.40125 26.591L9.2601 22.6616C9.3608 22.6112 9.47672 22.6005 9.58498 22.6314L24.415 26.8685C24.5233 26.8995 24.6392 26.8887 24.7399 26.8383L33.0012 22.7077C33.1537 22.6314 33.25 22.4756 33.25 22.3052Z" stroke="#222222"/>
</svg>
