<svg width="36" height="18" viewBox="0 0 36 18" fill="none" xmlns="http://www.w3.org/2000/svg">
<path d="M0 17.3866C0 17.6535 0 17.7869 0.0840973 17.8281C0.168195 17.8692 0.273524 17.7873 0.484182 17.6234L16.7721 4.95502C17.362 4.49625 17.6569 4.26686 18 4.26686C18.3431 4.26686 18.638 4.49625 19.2279 4.95502L35.5158 17.6234C35.7265 17.7873 35.8318 17.8692 35.9159 17.8281C36 17.7869 36 17.6535 36 17.3866V14.9782C36 14.4978 36 14.2576 35.8983 14.0497C35.7966 13.8418 35.607 13.6944 35.2279 13.3995L19.2279 0.955018C18.638 0.496247 18.3431 0.266862 18 0.266862C17.6569 0.266862 17.362 0.496247 16.7721 0.955019L0.772119 13.3995C0.392953 13.6944 0.203369 13.8418 0.101685 14.0497C0 14.2576 0 14.4978 0 14.9782V17.3866Z" fill="#222222"/>
</svg>
