<svg width="28" height="28" viewBox="0 0 28 28" fill="none" xmlns="http://www.w3.org/2000/svg">
<path d="M0 12.0585C0 11.0494 0 10.5448 0.221665 10.1141C0.443329 9.68334 0.853902 9.39007 1.67505 8.80354L12.8375 0.83034C13.3989 0.429383 13.6795 0.228904 14 0.228904C14.3205 0.228904 14.6011 0.429382 15.1625 0.83034L26.325 8.80354C27.1461 9.39007 27.5567 9.68334 27.7783 10.1141C28 10.5448 28 11.0494 28 12.0585V26C28 26.9428 28 27.4142 27.7071 27.7071C27.4142 28 26.9428 28 26 28H2C1.05719 28 0.585786 28 0.292893 27.7071C0 27.4142 0 26.9428 0 26V12.0585Z" fill="#7E869E" fill-opacity="0.25"/>
</svg>
