<svg width="48" height="48" viewBox="0 0 48 48" fill="none" xmlns="http://www.w3.org/2000/svg">
<path d="M20.6145 14.4397C21.8986 11.2384 22.5407 9.63767 23.5839 9.41582C23.8582 9.35749 24.1417 9.35749 24.4159 9.41582C25.4591 9.63767 26.1012 11.2384 27.3853 14.4397C28.1156 16.2603 28.4807 17.1706 29.1639 17.7897C29.3556 17.9634 29.5636 18.118 29.7851 18.2515C30.5748 18.7275 31.5606 18.8158 33.5321 18.9923C36.8697 19.2912 38.5384 19.4407 39.048 20.3922C39.1536 20.5892 39.2253 20.8026 39.2603 21.0234C39.4293 22.0894 38.2025 23.2056 35.7489 25.4378L35.0676 26.0577C33.9205 27.1013 33.3469 27.6231 33.0152 28.2743C32.8162 28.6649 32.6827 29.0856 32.6202 29.5196C32.516 30.2429 32.6839 30.9999 33.0198 32.5139L33.1399 33.0548C33.7423 35.7699 34.0435 37.1274 33.6675 37.7947C33.3297 38.3941 32.7076 38.7778 32.0204 38.8106C31.2554 38.8471 30.1774 37.9687 28.0215 36.212C26.6011 35.0545 25.8908 34.4758 25.1024 34.2497C24.3819 34.0431 23.6179 34.0431 22.8974 34.2497C22.109 34.4758 21.3988 35.0545 19.9783 36.212C17.8224 37.9687 16.7444 38.8471 15.9794 38.8106C15.2922 38.7778 14.6701 38.3941 14.3323 37.7947C13.9564 37.1274 14.2576 35.7699 14.8599 33.0548L14.98 32.5139C15.3159 30.9999 15.4838 30.2429 15.3796 29.5196C15.3171 29.0856 15.1836 28.6649 14.9846 28.2743C14.6529 27.6231 14.0794 27.1013 12.9323 26.0577L12.2509 25.4378C9.79734 23.2056 8.57055 22.0894 8.7395 21.0234C8.77449 20.8026 8.84625 20.5892 8.95179 20.3922C9.46139 19.4407 11.1301 19.2912 14.4677 18.9923C16.4392 18.8158 17.425 18.7275 18.2147 18.2515C18.4362 18.118 18.6442 17.9634 18.8359 17.7897C19.5191 17.1706 19.8842 16.2603 20.6145 14.4397Z" fill="#222222" stroke="#222222" stroke-width="2"/>
</svg>
