<svg width="17" height="13" viewBox="0 0 17 13" fill="none" xmlns="http://www.w3.org/2000/svg">
<path d="M15.8928 10.6603L16.3841 10.5674V10.5674L15.8928 10.6603ZM1.90063 3.26949L1.53461 2.92887L0.898274 3.61267L1.82017 3.76298L1.90063 3.26949ZM10.942 11.75L10.4624 11.8914L10.5682 12.25H10.942V11.75ZM7.22914 1.41669C10.1079 1.41669 12.0057 3.02384 13.2727 5.0254C14.5476 7.03936 15.1461 9.40306 15.4015 10.7532L16.3841 10.5674C16.1197 9.16949 15.4919 6.66136 14.1177 4.49053C12.7356 2.30729 10.5614 0.416687 7.22914 0.416687V1.41669ZM2.26666 3.61012C3.46437 2.32307 5.0636 1.41669 7.22914 1.41669V0.416687C4.74269 0.416687 2.88989 1.4725 1.53461 2.92887L2.26666 3.61012ZM1.82017 3.76298C7.23606 4.64601 9.5025 8.63603 10.4624 11.8914L11.4216 11.6086C10.4091 8.1749 7.93905 3.74743 1.98109 2.77601L1.82017 3.76298ZM14.9553 11.25H10.942V12.25H14.9553V11.25ZM15.4015 10.7532C15.4485 11.0019 15.2608 11.25 14.9553 11.25V12.25C15.8346 12.25 16.5572 11.4829 16.3841 10.5674L15.4015 10.7532Z" fill="#222222"/>
</svg>
