<svg width="17" height="13" viewBox="0 0 17 13" fill="none" xmlns="http://www.w3.org/2000/svg">
<path d="M15.8928 10.6603L16.3841 10.5674V10.5674L15.8928 10.6603ZM1.90063 3.26943L1.53461 2.92881L0.898274 3.6126L1.82017 3.76292L1.90063 3.26943ZM10.942 11.75L10.4624 11.8914L10.5682 12.25H10.942V11.75ZM7.22914 1.41663C10.1079 1.41663 12.0057 3.02378 13.2727 5.02534C14.5476 7.0393 15.1461 9.403 15.4015 10.7532L16.3841 10.5674C16.1197 9.16943 15.4919 6.6613 14.1177 4.49047C12.7356 2.30723 10.5614 0.416626 7.22914 0.416626V1.41663ZM2.26666 3.61005C3.46437 2.32301 5.0636 1.41663 7.22914 1.41663V0.416626C4.74269 0.416626 2.88989 1.47244 1.53461 2.92881L2.26666 3.61005ZM1.82017 3.76292C7.23606 4.64595 9.5025 8.63597 10.4624 11.8914L11.4216 11.6085C10.4091 8.17484 7.93905 3.74736 1.98109 2.77595L1.82017 3.76292ZM14.9553 11.25H10.942V12.25H14.9553V11.25ZM15.4015 10.7532C15.4485 11.0018 15.2608 11.25 14.9553 11.25V12.25C15.8346 12.25 16.5572 11.4829 16.3841 10.5674L15.4015 10.7532Z" fill="#222222"/>
</svg>
