<svg width="36" height="30" viewBox="0 0 36 30" fill="none" xmlns="http://www.w3.org/2000/svg">
<path d="M11.3252 29.625C24.9068 29.625 32.3374 18.3701 32.3374 8.61286C32.3374 8.29645 32.3304 7.97301 32.3163 7.65661C33.7618 6.61126 35.0092 5.31645 36 3.83301C34.6538 4.43197 33.2245 4.82314 31.7609 4.99317C33.3019 4.06943 34.4558 2.61827 35.0086 0.908716C33.5588 1.7679 31.9734 2.37398 30.3202 2.70098C29.2063 1.51741 27.7335 0.73374 26.1295 0.471142C24.5256 0.208544 22.8798 0.481641 21.4466 1.24821C20.0134 2.01478 18.8727 3.23212 18.2008 4.71203C17.5288 6.19194 17.3631 7.85199 17.7293 9.43551C14.7937 9.2882 11.9219 8.52562 9.29997 7.19721C6.67804 5.86881 4.36454 4.00422 2.50945 1.72434C1.5666 3.34993 1.27808 5.27353 1.70255 7.1042C2.12701 8.93487 3.23259 10.5352 4.79461 11.58C3.62194 11.5428 2.47496 11.2271 1.44844 10.6589V10.7504C1.44739 12.4563 2.03715 14.1099 3.11746 15.4302C4.19778 16.7505 5.70199 17.6559 7.37437 17.9925C6.28808 18.2898 5.14797 18.3331 4.04227 18.1191C4.51418 19.5862 5.43236 20.8694 6.66866 21.7896C7.90495 22.7097 9.39768 23.221 10.9385 23.2519C8.32264 25.3067 5.09126 26.4213 1.76484 26.416C1.17493 26.4151 0.585599 26.3789 0 26.3077C3.37928 28.4757 7.3103 29.6271 11.3252 29.625Z" fill="white"/>
</svg>
