<svg width="33" height="33" viewBox="0 0 33 33" fill="none" xmlns="http://www.w3.org/2000/svg">
<path d="M20.6358 1.90949C21.2888 1.47412 21.6153 1.25643 21.9711 1.29166C22.3269 1.32689 22.6044 1.60439 23.1594 2.15938L30.8406 9.84062C31.3956 10.3956 31.6731 10.6731 31.7083 11.0289C31.7436 11.3847 31.5259 11.7112 31.0905 12.3642L25.7557 20.3664C24.8807 21.679 24.4431 22.3353 24.1432 23.0593C23.8433 23.7834 23.6886 24.5568 23.3793 26.1037L22.5969 30.0153C22.3274 31.3628 22.1927 32.0366 21.6925 32.2387C21.1922 32.4408 20.6252 32.0482 19.491 31.263V31.263C14.2552 27.6382 11.6373 25.8258 9.40574 23.5943C7.17415 21.3627 5.36177 18.7448 1.73702 13.509V13.509C0.951815 12.3748 0.559214 11.8078 0.761288 11.3075C0.963361 10.8073 1.63716 10.6726 2.98474 10.4031L6.89626 9.62075C8.44317 9.31137 9.21662 9.15668 9.94067 8.85676C10.6647 8.55685 11.321 8.11932 12.6336 7.24426L20.6358 1.90949Z" fill="#7E869E" fill-opacity="0.25" stroke="#222222" stroke-width="1.4"/>
</svg>
