<svg width="28" height="44" viewBox="0 0 28 44" fill="none" xmlns="http://www.w3.org/2000/svg">
<path fill-rule="evenodd" clip-rule="evenodd" d="M24.621 3.8681L6.93142 1.08832C3.71084 0.582229 2.10055 0.329183 1.05027 1.2273C0 2.12542 0 3.75548 0 7.01558V20.9999H13.9194L7.21913 12.6246L8.78087 11.3752L16.7809 21.3752L17.2806 21.9999L16.7809 22.6246L8.78087 32.6246L7.21913 31.3752L13.9194 22.9999H0V36.9826C0 40.2427 0 41.8728 1.05027 42.7709C2.10054 43.669 3.71083 43.416 6.93139 42.9099H6.93143L24.621 40.1301C26.2337 39.8767 27.0401 39.7499 27.52 39.1887C28 38.6274 28 37.8111 28 36.1786V7.81962C28 6.18709 28 5.37083 27.52 4.80954C27.0401 4.24825 26.2337 4.12153 24.621 3.8681Z" fill="#222222"/>
</svg>
