<svg width="32" height="48" viewBox="0 0 32 48" fill="none" xmlns="http://www.w3.org/2000/svg">
<path fill-rule="evenodd" clip-rule="evenodd" d="M27.7876 4.40146L7.76474 1.25501C4.54416 0.748916 2.93386 0.49587 1.88359 1.39399C0.833313 2.29211 0.833313 3.92216 0.833313 7.18227V23H16.086L8.71911 13.7914L10.2808 12.542L18.9475 23.3753L19.4473 24L18.9475 24.6247L10.2808 35.458L8.71911 34.2087L16.086 25H0.833313V40.816C0.833313 44.0761 0.833313 45.7061 1.88359 46.6042C2.93386 47.5024 4.54415 47.2493 7.76474 46.7432L27.7876 43.5968C29.4003 43.3433 30.2067 43.2166 30.6867 42.6553C31.1666 42.0941 31.1666 41.2778 31.1666 39.6453V8.35297C31.1666 6.72044 31.1666 5.90418 30.6867 5.34289C30.2067 4.7816 29.4003 4.65489 27.7876 4.40146Z" fill="#222222"/>
</svg>
