<svg width="17" height="13" viewBox="0 0 17 13" fill="none" xmlns="http://www.w3.org/2000/svg">
<path d="M15.0993 3.26943L15.1797 3.76292L16.1016 3.61261L15.4653 2.92881L15.0993 3.26943ZM1.10707 10.6603L0.615782 10.5674L1.10707 10.6603ZM6.05788 11.75V12.25H6.43173L6.53746 11.8914L6.05788 11.75ZM9.77077 1.41663C11.9363 1.41663 13.5355 2.32301 14.7332 3.61006L15.4653 2.92881C14.11 1.47244 12.2572 0.416626 9.77077 0.416626V1.41663ZM1.59836 10.7532C1.85371 9.403 2.45223 7.0393 3.72716 5.02534C4.99424 3.02378 6.89201 1.41663 9.77077 1.41663V0.416626C6.43853 0.416626 4.26432 2.30723 2.88223 4.49046C1.50799 6.66129 0.88016 9.16942 0.615782 10.5674L1.59836 10.7532ZM2.04454 11.25C1.73904 11.25 1.55134 11.0018 1.59836 10.7532L0.615782 10.5674C0.442644 11.4829 1.16527 12.25 2.04454 12.25V11.25ZM6.05788 11.25H2.04454V12.25H6.05788V11.25ZM6.53746 11.8914C7.4974 8.63597 9.76384 4.64596 15.1797 3.76292L15.0188 2.77595C9.06085 3.74737 6.5908 8.17484 5.57829 11.6085L6.53746 11.8914Z" fill="#222222"/>
</svg>
