<svg width="36" height="36" viewBox="0 0 36 36" fill="none" xmlns="http://www.w3.org/2000/svg">
<path d="M23.3025 1.40949C23.9555 0.97412 24.2821 0.756434 24.6378 0.791662C24.9936 0.826891 25.2711 1.10439 25.8261 1.65938L34.3407 10.174C34.8957 10.7289 35.1732 11.0064 35.2084 11.3622C35.2436 11.718 35.0259 12.0445 34.5906 12.6976L28.5891 21.6997C27.7141 23.0123 27.2765 23.6686 26.9766 24.3927C26.6767 25.1167 26.522 25.8902 26.2126 27.4371L25.2637 32.1819C24.9941 33.5295 24.8594 34.2033 24.3592 34.4054C23.859 34.6075 23.294 34.2163 22.1641 33.4341L21.0476 32.6612C15.8297 29.0487 13.2207 27.2425 10.9891 25.0109C8.75753 22.7793 6.95131 20.1704 3.33888 14.9524L2.56597 13.836C1.78371 12.706 1.39259 12.1411 1.59466 11.6409C1.79673 11.1407 2.47053 11.0059 3.81812 10.7364L8.56297 9.78741C10.1099 9.47803 10.8833 9.32334 11.6074 9.02343C12.3314 8.72352 12.9877 8.28599 14.3003 7.41093L23.3025 1.40949Z" fill="#7E869E" fill-opacity="0.25" stroke="#222222" stroke-width="1.4"/>
</svg>
