<svg width="15" height="12" viewBox="0 0 15 12" fill="none" xmlns="http://www.w3.org/2000/svg">
<path d="M13.8259 3.17182L13.9078 3.66506L14.8155 3.51422L14.1951 2.83469L13.8259 3.17182ZM1.16897 9.91279L1.66017 10.0062L1.16897 9.91279ZM5.63744 11V11.5H6.01329L6.11774 11.139L5.63744 11ZM9.00006 1.5C10.9427 1.5 12.3782 2.32783 13.4566 3.50895L14.1951 2.83469C12.9614 1.48344 11.2706 0.5 9.00006 0.5V1.5ZM1.66017 10.0062C1.90201 8.73454 2.45372 6.578 3.60503 4.75158C4.74897 2.93685 6.44561 1.5 9.00006 1.5V0.5C5.98862 0.5 4.01605 2.22429 2.75908 4.21832C1.50949 6.20066 0.928598 8.50052 0.677776 9.81938L1.66017 10.0062ZM2.10504 10.5C1.79919 10.5 1.61331 10.2526 1.66017 10.0062L0.677776 9.81938C0.503565 10.7354 1.22765 11.5 2.10504 11.5V10.5ZM5.63744 10.5H2.10504V11.5H5.63744V10.5ZM6.11774 11.139C6.98639 8.13648 9.03212 4.47531 13.9078 3.66506L13.7439 2.67859C8.31878 3.58014 6.07485 7.68897 5.15714 10.861L6.11774 11.139Z" fill="#222222"/>
</svg>
