<svg width="32" height="48" viewBox="0 0 32 48" fill="none" xmlns="http://www.w3.org/2000/svg">
<path fill-rule="evenodd" clip-rule="evenodd" d="M27.7875 4.4014L7.76468 1.25495C4.54409 0.748855 2.9338 0.495809 1.88353 1.39393C0.833252 2.29205 0.833252 3.9221 0.833252 7.18221V23H16.086L8.71905 13.7913L10.2808 12.5419L18.9475 23.3753L19.4472 24L18.9475 24.6246L10.2808 35.458L8.71905 34.2086L16.086 25H0.833252V40.8159C0.833252 44.076 0.833252 45.7061 1.88353 46.6042C2.9338 47.5023 4.54409 47.2493 7.76468 46.7432L27.7875 43.5967C29.4003 43.3433 30.2066 43.2166 30.6866 42.6553C31.1666 42.094 31.1666 41.2777 31.1666 39.6452V8.35291C31.1666 6.72038 31.1666 5.90412 30.6866 5.34283C30.2066 4.78154 29.4003 4.65483 27.7875 4.4014Z" fill="#222222"/>
</svg>
