<svg width="17" height="13" viewBox="0 0 17 13" fill="none" xmlns="http://www.w3.org/2000/svg">
<path d="M15.0993 3.2695L15.1797 3.76298L16.1016 3.61267L15.4653 2.92887L15.0993 3.2695ZM1.10707 10.6603L0.615782 10.5674H0.615782L1.10707 10.6603ZM6.05788 11.75V12.25H6.43173L6.53746 11.8914L6.05788 11.75ZM9.77077 1.41669C11.9363 1.41669 13.5355 2.32308 14.7332 3.61012L15.4653 2.92887C14.11 1.47251 12.2572 0.416687 9.77077 0.416687V1.41669ZM1.59836 10.7532C1.85371 9.40306 2.45223 7.03936 3.72716 5.0254C4.99424 3.02384 6.89201 1.41669 9.77077 1.41669V0.416687C6.43853 0.416687 4.26432 2.30729 2.88223 4.49052C1.50799 6.66135 0.88016 9.16948 0.615782 10.5674L1.59836 10.7532ZM2.04454 11.25C1.73904 11.25 1.55134 11.0019 1.59836 10.7532L0.615782 10.5674C0.442644 11.4829 1.16527 12.25 2.04454 12.25V11.25ZM6.05788 11.25H2.04454V12.25H6.05788V11.25ZM6.53746 11.8914C7.4974 8.63603 9.76384 4.64602 15.1797 3.76298L15.0188 2.77601C9.06085 3.74743 6.5908 8.1749 5.57829 11.6086L6.53746 11.8914Z" fill="#222222"/>
</svg>
