<svg width="32" height="26" viewBox="0 0 32 26" fill="none" xmlns="http://www.w3.org/2000/svg">
<path d="M31 20.7219V1.72812C31 1.39359 30.648 1.17602 30.3488 1.32562L23.1566 4.92172C23.0559 4.97207 22.9399 4.98284 22.8317 4.95191L9.16831 1.04809C9.06005 1.01716 8.94414 1.02793 8.84344 1.07828L1.24875 4.87562C1.0963 4.95185 1 5.10767 1 5.27812V24.2719C1 24.6064 1.35204 24.824 1.65125 24.6744L8.84344 21.0783C8.94414 21.0279 9.06005 21.0172 9.16831 21.0481L22.8317 24.9519C22.9399 24.9828 23.0559 24.9721 23.1566 24.9217L30.7512 21.1244C30.9037 21.0482 31 20.8923 31 20.7219Z" stroke="#222222"/>
</svg>
