<svg width="34" height="28" viewBox="0 0 34 28" fill="none" xmlns="http://www.w3.org/2000/svg">
<path d="M33.25 22.3052V1.6448C33.25 1.31028 32.898 1.09271 32.5988 1.24231L24.7399 5.17174C24.6392 5.22209 24.5233 5.23286 24.415 5.20193L9.58497 0.964775C9.47672 0.933845 9.3608 0.944618 9.2601 0.994969L0.998754 5.12564C0.846301 5.20187 0.75 5.35769 0.75 5.52814V26.1886C0.75 26.5231 1.10204 26.7407 1.40125 26.5911L9.2601 22.6616C9.3608 22.6113 9.47672 22.6005 9.58498 22.6314L24.415 26.8686C24.5233 26.8995 24.6392 26.8888 24.7399 26.8384L33.0012 22.7077C33.1537 22.6315 33.25 22.4757 33.25 22.3052Z" stroke="#222222"/>
</svg>
